<svg width="34" height="316" viewBox="0 0 34 316" fill="none" xmlns="http://www.w3.org/2000/svg">
<rect x="33.5" y="0.5" width="315" height="33" rx="16.5" transform="rotate(90 33.5 0.5)" fill="white"/>
<rect x="33.5" y="0.5" width="315" height="33" rx="16.5" transform="rotate(90 33.5 0.5)" stroke="white"/>
<path d="M20.5361 17.9814L23.7227 21.5371L21.5156 23.5146L18.9814 20.6875L18.9814 24.5L16.0186 24.5L16.0186 20.0576L13.043 23.377L10.8359 21.3994L13.9004 17.9814L9.5 17.9814L9.5 15.0186L13.9004 15.0186L10.8359 11.6006L13.043 9.62305L16.0186 12.9424L16.0186 8.5L18.9814 8.5L18.9814 12.3125L21.5156 9.48535L23.7227 11.4629L20.5361 15.0186L25.5 15.0186L25.5 17.9814L20.5361 17.9814Z" fill="#0C0B0B"/>
</svg>
