<svg width="34" height="157" viewBox="0 0 34 157" fill="none" xmlns="http://www.w3.org/2000/svg">
<rect x="0.5" y="156.5" width="156" height="33" rx="16.5" transform="rotate(-90 0.5 156.5)" fill="#0C0B0B"/>
<rect x="0.5" y="156.5" width="156" height="33" rx="16.5" transform="rotate(-90 0.5 156.5)" stroke="white"/>
<path d="M13.4639 139.019L10.2773 135.463L12.4844 133.485L15.0186 136.313L15.0186 132.5L17.9814 132.5L17.9814 136.942L20.957 133.623L23.1641 135.601L20.0996 139.019L24.5 139.019L24.5 141.981L20.0996 141.981L23.1641 145.399L20.957 147.377L17.9814 144.058L17.9814 148.5L15.0186 148.5L15.0186 144.688L12.4844 147.515L10.2773 145.537L13.4639 141.981L8.5 141.981L8.5 139.019L13.4639 139.019Z" fill="white"/>
</svg>
