<svg width="30" height="30" viewBox="0 0 30 30" fill="none" xmlns="http://www.w3.org/2000/svg">
<mask id="path-1-inside-1_891_7787" fill="white">
<path d="M22.0459 2.07129L19.457 11.7295L29.1172 14.3184L27.0459 22.0459L17.3867 19.457L14.7988 29.1172L7.07129 27.0459L9.65918 17.3867L0 14.7988L2.07129 7.07129L11.7295 9.65918L14.3184 0L22.0459 2.07129Z"/>
</mask>
<path d="M22.0459 2.07129L23.0118 2.3302L23.2707 1.36429L22.3048 1.10539L22.0459 2.07129ZM19.457 11.7295L18.4911 11.4706L18.2322 12.4365L19.1982 12.6954L19.457 11.7295ZM29.1172 14.3184L30.0831 14.5773L30.342 13.6113L29.376 13.3524L29.1172 14.3184ZM27.0459 22.0459L26.787 23.0118L27.7529 23.2707L28.0118 22.3048L27.0459 22.0459ZM17.3867 19.457L17.6456 18.4911L16.6796 18.2322L16.4208 19.1983L17.3867 19.457ZM14.7988 29.1172L14.5399 30.0831L15.506 30.342L15.7648 29.376L14.7988 29.1172ZM7.07129 27.0459L6.10536 26.7871L5.84659 27.7529L6.81239 28.0118L7.07129 27.0459ZM9.65918 17.3867L10.6251 17.6455L10.8839 16.6796L9.91797 16.4208L9.65918 17.3867ZM0 14.7988L-0.965904 14.5399L-1.22483 15.5059L-0.258793 15.7648L0 14.7988ZM2.07129 7.07129L2.33011 6.10536L1.36426 5.84657L1.10539 6.81239L2.07129 7.07129ZM11.7295 9.65918L11.4707 10.6251L12.4365 10.8839L12.6954 9.91806L11.7295 9.65918ZM14.3184 0L14.5773 -0.965904L13.6113 -1.22481L13.3525 -0.258884L14.3184 0ZM22.0459 2.07129L21.08 1.81238L18.4911 11.4706L19.457 11.7295L20.4229 11.9884L23.0118 2.3302L22.0459 2.07129ZM19.457 11.7295L19.1982 12.6954L28.8583 15.2843L29.1172 14.3184L29.376 13.3524L19.7159 10.7636L19.457 11.7295ZM29.1172 14.3184L28.1513 14.0595L26.08 21.787L27.0459 22.0459L28.0118 22.3048L30.0831 14.5773L29.1172 14.3184ZM27.0459 22.0459L27.3048 21.08L17.6456 18.4911L17.3867 19.457L17.1278 20.4229L26.787 23.0118L27.0459 22.0459ZM17.3867 19.457L16.4208 19.1983L13.8329 28.8584L14.7988 29.1172L15.7648 29.376L18.3527 19.7158L17.3867 19.457ZM14.7988 29.1172L15.0577 28.1513L7.33019 26.08L7.07129 27.0459L6.81239 28.0118L14.5399 30.0831L14.7988 29.1172ZM7.07129 27.0459L8.03722 27.3047L10.6251 17.6455L9.65918 17.3867L8.69325 17.1279L6.10536 26.7871L7.07129 27.0459ZM9.65918 17.3867L9.91797 16.4208L0.258793 13.8329L0 14.7988L-0.258793 15.7648L9.40039 18.3527L9.65918 17.3867ZM0 14.7988L0.965904 15.0577L3.03719 7.33019L2.07129 7.07129L1.10539 6.81239L-0.965904 14.5399L0 14.7988ZM2.07129 7.07129L1.81247 8.03722L11.4707 10.6251L11.7295 9.65918L11.9883 8.69325L2.33011 6.10536L2.07129 7.07129ZM11.7295 9.65918L12.6954 9.91806L15.2843 0.258884L14.3184 0L13.3525 -0.258884L10.7636 9.4003L11.7295 9.65918ZM14.3184 0L14.0595 0.965904L21.787 3.03719L22.0459 2.07129L22.3048 1.10539L14.5773 -0.965904L14.3184 0Z" fill="#10CBFF" mask="url(#path-1-inside-1_891_7787)"/>
</svg>
