<svg width="26" height="26" viewBox="0 0 26 26" fill="none" xmlns="http://www.w3.org/2000/svg">
<path d="M11.8136 23.5135C11.6474 23.4474 11.5076 23.3283 11.4159 23.1748C11.3242 23.0212 11.2857 22.8417 11.3063 22.664L12.0871 15.9873H5.02268C4.72153 15.9873 4.4321 15.8088 4.2969 15.5397C4.16169 15.2706 4.19124 14.9319 4.37098 14.6903L13.235 2.77307C13.4485 2.48603 13.8542 2.37087 14.1867 2.50288C14.5192 2.63489 14.7354 2.99694 14.6939 3.35228L13.9131 10.029H20.977C21.2782 10.029 21.5677 10.2076 21.7029 10.4768C21.8381 10.746 21.8085 11.0849 21.6287 11.3265L12.7652 23.2427C12.6898 23.3445 12.5916 23.4273 12.4784 23.4842C12.2735 23.5873 12.0271 23.5973 11.8136 23.5135ZM6.63974 14.3623H13.0001C13.2294 14.3622 13.4546 14.4632 13.6071 14.6345C13.7596 14.8058 13.8339 15.0412 13.8073 15.2689L13.2731 19.8382L19.3604 11.654H13.0001C12.7708 11.6538 12.5458 11.5527 12.3933 11.3815C12.2409 11.2103 12.1665 10.975 12.1929 10.7473L12.7271 6.17805L6.63974 14.3623Z" fill="#111111"/>
</svg>
