<svg width="26" height="26" viewBox="0 0 26 26" fill="none" xmlns="http://www.w3.org/2000/svg">
<path d="M16.0067 21.9543H9.99389C9.7784 21.9543 9.57174 22.0399 9.41937 22.1923C9.267 22.3446 9.18139 22.5513 9.18139 22.7668C9.18139 22.9823 9.267 23.1889 9.41937 23.3413C9.57174 23.4937 9.7784 23.5793 9.99389 23.5793H16.0067C16.2222 23.5793 16.4289 23.4937 16.5812 23.3413C16.7336 23.1889 16.8192 22.9823 16.8192 22.7668C16.8192 22.5513 16.7336 22.3446 16.5812 22.1923C16.4289 22.0399 16.2222 21.9543 16.0067 21.9543Z" fill="#111111"/>
<path d="M13.1344 1.91371C11.514 1.88318 9.92418 2.35723 8.58513 3.27021C7.24607 4.18319 6.22401 5.48993 5.66047 7.00948C5.09693 8.52902 5.0198 10.1862 5.43975 11.7515C5.85971 13.3168 6.75597 14.7129 8.00443 15.7463C8.367 16.0382 8.66053 16.4067 8.86401 16.8253C9.06748 17.244 9.17587 17.7025 9.18139 18.1679V19.7601C9.18145 19.9756 9.26707 20.1822 9.41943 20.3346C9.57179 20.4869 9.77842 20.5726 9.99389 20.5726H16.0067C16.2222 20.5726 16.4288 20.4869 16.5812 20.3346C16.7335 20.1822 16.8192 19.9756 16.8192 19.7601V18.1711C16.8297 17.6981 16.9438 17.2332 17.1535 16.8092C17.3631 16.3851 17.6632 16.0122 18.0327 15.7167C18.9453 14.9566 19.6714 13.9972 20.1551 12.9124C20.6387 11.8276 20.867 10.6463 20.8225 9.45946C20.7296 7.46369 19.8856 5.57683 18.4597 4.17734C17.0338 2.77786 15.1315 1.96925 13.1344 1.91371ZM15.1942 18.1679V18.9476H10.8064V18.1679C10.7969 17.9663 10.774 17.7656 10.7379 17.567H15.2644C15.2276 17.7645 15.2042 17.9642 15.1942 18.1648L15.1942 18.1679ZM16.9885 14.4715C16.5034 14.8833 16.0994 15.382 15.7973 15.942H10.2127C9.91785 15.3898 9.52023 14.8989 9.04122 14.4958C8.05382 13.6763 7.34536 12.5703 7.01377 11.3307C6.68219 10.0911 6.74385 8.77916 7.19023 7.57614C7.63662 6.37312 8.44569 5.33846 9.5056 4.6152C10.5655 3.89193 11.8239 3.51577 13.1069 3.53871C14.6892 3.58232 16.1964 4.22278 17.3261 5.33155C18.4558 6.44032 19.1243 7.93534 19.1975 9.51654C19.233 10.4564 19.0524 11.3919 18.6694 12.251C18.2864 13.11 17.7113 13.8697 16.9885 14.4715Z" fill="#111111"/>
</svg>
