<svg xmlns="http://www.w3.org/2000/svg" width="24" height="24" viewBox="0 0 24 24" aria-hidden="true">
  <path fill="#0c0b0b" fill-rule="evenodd" d="M9 4.5a.75.75 0 0 1 .7.5l.9 2.3a2.2 2.2 0 0 0 1.2 1.2l2.2.6a.75.75 0 0 1 0 1.4l-2.2.6a2.2 2.2 0 0 0-1.2 1.2l-.9 2.3a.75.75 0 0 1-1.4 0l-.9-2.3a2.2 2.2 0 0 0-1.2-1.2l-2.2-.6a.75.75 0 0 1 0-1.4l2.2-.6a2.2 2.2 0 0 0 1.2-1.2l.9-2.3a.75.75 0 0 1 .7-.5Z" />
  <path fill="#0c0b0b" d="M17.5 3a.75.75 0 0 1 .7.5l.2.7a.9.9 0 0 0 .4.4l.7.2a.75.75 0 0 1 0 1.4l-.7.2a.9.9 0 0 0-.4.4l-.2.7a.75.75 0 0 1-1.4 0l-.2-.7a.9.9 0 0 0-.4-.4l-.7-.2a.75.75 0 0 1 0-1.4l.7-.2a.9.9 0 0 0 .4-.4l.2-.7a.75.75 0 0 1 .7-.5Z" />
  <path fill="#0c0b0b" d="M6 12.5a.5.5 0 0 1 .4.2l.4.8a.5.5 0 0 0 .3.2l.8.3a.5.5 0 0 1 0 1l-.8.2a.5.5 0 0 0-.3.3l-.2.6a.5.5 0 0 1-1 0l-.2-.6a.5.5 0 0 0-.3-.3l-.5-.1a.5.5 0 0 1 0-1l.5-.1a.5.5 0 0 0 .3-.3l.1-.3a.5.5 0 0 1 .3-.2Z" />
</svg>
