<svg width="20" height="20" viewBox="0 0 20 20" fill="none" xmlns="http://www.w3.org/2000/svg">
<mask id="path-1-inside-1_891_7790" fill="white">
<path d="M9.60293 3.48192e-06L11.5639 6.42474L17.9895 4.4632L19.5589 9.60241L13.1333 11.5639L15.0957 17.989L9.95565 19.5589L7.99329 13.1338L1.56907 15.0957L6.89581e-06 9.95513L6.42422 7.99328L4.46321 1.56855L9.60293 3.48192e-06Z"/>
</mask>
<path d="M9.60293 3.48192e-06L10.5594 -0.29193L10.2674 -1.24833L9.31104 -0.956448L9.60293 3.48192e-06ZM11.5639 6.42474L10.6075 6.71667L10.8995 7.67315L11.8559 7.38117L11.5639 6.42474ZM17.9895 4.4632L18.9459 4.17114L18.6539 3.21483L17.6975 3.50677L17.9895 4.4632ZM19.5589 9.60241L19.8509 10.5588L20.8074 10.2668L20.5153 9.31035L19.5589 9.60241ZM13.1333 11.5639L12.8414 10.6075L11.8848 10.8995L12.1769 11.8561L13.1333 11.5639ZM15.0957 17.989L15.3878 18.9454L16.3442 18.6533L16.0521 17.6969L15.0957 17.989ZM9.95565 19.5589L8.99927 19.851L9.29137 20.8074L10.2478 20.5153L9.95565 19.5589ZM7.99329 13.1338L8.94967 12.8417L8.65758 11.8854L7.70122 12.1774L7.99329 13.1338ZM1.56907 15.0957L0.612632 15.3876L0.904609 16.3442L1.86114 16.0521L1.56907 15.0957ZM6.8958e-06 9.95513L-0.292061 8.99873L-1.24833 9.29076L-0.956431 10.2471L6.8958e-06 9.95513ZM6.42422 7.99328L6.71629 8.94968L7.67256 8.65766L7.38066 7.70135L6.42422 7.99328ZM4.46321 1.56855L4.17131 0.612098L3.21482 0.904002L3.50677 1.86048L4.46321 1.56855ZM9.60293 3.48192e-06L8.64649 0.291937L10.6075 6.71667L11.5639 6.42474L12.5204 6.1328L10.5594 -0.29193L9.60293 3.48192e-06ZM11.5639 6.42474L11.8559 7.38117L18.2815 5.41963L17.9895 4.4632L17.6975 3.50677L11.272 5.46831L11.5639 6.42474ZM17.9895 4.4632L17.0331 4.75526L18.6025 9.89447L19.5589 9.60241L20.5153 9.31035L18.9459 4.17114L17.9895 4.4632ZM19.5589 9.60241L19.2669 8.64598L12.8414 10.6075L13.1333 11.5639L13.4253 12.5204L19.8509 10.5588L19.5589 9.60241ZM13.1333 11.5639L12.1769 11.8561L14.1393 18.2811L15.0957 17.989L16.0521 17.6969L14.0897 11.2718L13.1333 11.5639ZM15.0957 17.989L14.8036 17.0326L9.66355 18.6025L9.95565 19.5589L10.2478 20.5153L15.3878 18.9454L15.0957 17.989ZM9.95565 19.5589L10.912 19.2668L8.94967 12.8417L7.99329 13.1338L7.0369 13.4259L8.99927 19.851L9.95565 19.5589ZM7.99329 13.1338L7.70122 12.1774L1.277 14.1393L1.56907 15.0957L1.86114 16.0521L8.28536 14.0902L7.99329 13.1338ZM1.56907 15.0957L2.52551 14.8037L0.956445 9.6632L6.8958e-06 9.95513L-0.956431 10.2471L0.612632 15.3876L1.56907 15.0957ZM6.8958e-06 9.95513L0.292075 10.9115L6.71629 8.94968L6.42422 7.99328L6.13216 7.03689L-0.292061 8.99873L6.8958e-06 9.95513ZM6.42422 7.99328L7.38066 7.70135L5.41964 1.27662L4.46321 1.56855L3.50677 1.86048L5.46779 8.28522L6.42422 7.99328ZM4.46321 1.56855L4.7551 2.525L9.89482 0.956455L9.60293 3.48192e-06L9.31104 -0.956448L4.17131 0.612098L4.46321 1.56855Z" fill="#FF9EC9" mask="url(#path-1-inside-1_891_7790)"/>
</svg>
