<svg width="26" height="26" viewBox="0 0 26 26" fill="none" xmlns="http://www.w3.org/2000/svg">
<path fill-rule="evenodd" clip-rule="evenodd" d="M5.45327 11.375C6.17151 11.7477 6.99759 12.2924 7.90433 13.1312C8.78429 13.9451 9.3598 14.7249 9.74996 15.433C10.1401 14.7249 10.7156 13.9451 11.5956 13.1312C12.5023 12.2924 13.3284 11.7477 14.0467 11.375C13.3284 11.0023 12.5023 10.4576 11.5956 9.61883C10.7156 8.80487 10.1401 8.02508 9.74996 7.31703C9.35979 8.02508 8.78429 8.80487 7.90433 9.61883C6.99759 10.4576 6.17151 11.0023 5.45327 11.375ZM8.91147 5.03438C8.69213 5.86558 8.28192 7.05596 6.80088 8.42592C5.21471 9.89313 3.96605 10.2918 3.16646 10.5471C2.51959 10.7536 2.16663 10.8663 2.16663 11.375C2.16663 11.8837 2.51959 11.9964 3.16646 12.2029C3.96605 12.4582 5.21471 12.8569 6.80088 14.3241C8.28192 15.694 8.69213 16.8844 8.91147 17.7156C8.91791 17.74 8.92418 17.7641 8.93031 17.7879C8.94695 17.8524 8.96255 17.9146 8.97754 17.9744C9.13342 18.5963 9.22416 18.9583 9.74996 18.9583C10.2758 18.9583 10.3665 18.5963 10.5224 17.9744C10.5374 17.9146 10.553 17.8524 10.5696 17.7879C10.5757 17.7641 10.582 17.74 10.5884 17.7156C10.8078 16.8844 11.218 15.694 12.699 14.3241C14.2852 12.8569 15.5339 12.4582 16.3335 12.2029C16.9803 11.9964 17.3333 11.8837 17.3333 11.375C17.3333 10.8663 16.9803 10.7536 16.3335 10.5471C15.5339 10.2918 14.2852 9.89313 12.699 8.42592C11.218 7.05596 10.8078 5.86558 10.5884 5.03438C10.582 5.00998 10.5757 4.98589 10.5696 4.96211C10.553 4.89759 10.5374 4.83537 10.5224 4.77557C10.3665 4.15366 10.2758 3.79166 9.74996 3.79166C9.22416 3.79166 9.13342 4.15366 8.97754 4.77557C8.96255 4.83537 8.94696 4.89759 8.93032 4.96211C8.92418 4.98589 8.91791 5.00998 8.91147 5.03438Z" fill="#111111"/>
<path fill-rule="evenodd" clip-rule="evenodd" d="M16.6979 18.4167C17.0504 18.6641 17.4508 18.9795 17.8951 19.3904C18.3469 19.8083 18.6908 20.1996 18.9583 20.5571C19.2258 20.1996 19.5697 19.8083 20.0215 19.3904C20.4658 18.9795 20.8662 18.6641 21.2186 18.4167C20.8662 18.1692 20.4658 17.8539 20.0215 17.4429C19.5697 17.025 19.2258 16.6337 18.9583 16.2762C18.6908 16.6337 18.3469 17.025 17.8951 17.4429C17.4508 17.8539 17.0504 18.1692 16.6979 18.4167ZM18.0563 14.6856C17.8254 15.105 17.4606 15.6312 16.7916 16.25C15.8706 17.102 15.1941 17.461 14.7476 17.698C14.2998 17.9356 14.0833 18.0505 14.0833 18.4167C14.0833 18.7828 14.2998 18.8977 14.7476 19.1353C15.1941 19.3723 15.8706 19.7314 16.7916 20.5833C17.4606 21.2021 17.8254 21.7283 18.0563 22.1477L18.0587 22.1521C18.1692 22.3532 18.2489 22.5297 18.3168 22.6798C18.4966 23.0779 18.5932 23.2917 18.9583 23.2917C19.3234 23.2917 19.4199 23.0779 19.5998 22.6798C19.6677 22.5297 19.7474 22.3532 19.8579 22.1521L19.8603 22.1477C20.0912 21.7283 20.456 21.2021 21.125 20.5833C22.046 19.7314 22.7225 19.3723 23.169 19.1353C23.6168 18.8977 23.8333 18.7828 23.8333 18.4167C23.8333 18.0505 23.6168 17.9356 23.169 17.698C22.7225 17.461 22.046 17.102 21.125 16.25C20.456 15.6312 20.0912 15.105 19.8603 14.6856L19.8579 14.6812C19.7474 14.4801 19.6677 14.3037 19.5998 14.1535C19.4199 13.7554 19.3234 13.5417 18.9583 13.5417C18.5932 13.5417 18.4966 13.7554 18.3168 14.1535C18.2489 14.3037 18.1692 14.4801 18.0587 14.6812L18.0563 14.6856Z" fill="#111111"/>
<path d="M17.5138 7.40277C16.2841 6.26527 15.7083 6.44583 15.7083 5.95833C15.7083 5.47083 16.2841 5.65138 17.5138 4.51388C18.7436 3.37638 18.4313 2.70833 18.9583 2.70833C19.4853 2.70833 19.173 3.37638 20.4027 4.51388C21.6325 5.65138 22.2083 5.47083 22.2083 5.95833C22.2083 6.44583 21.6325 6.26527 20.4027 7.40277C19.173 8.54027 19.4853 9.20833 18.9583 9.20833C18.4313 9.20833 18.7436 8.54027 17.5138 7.40277Z" fill="#111111"/>
</svg>
